<svg width="794" height="178" viewBox="0 0 794 178" fill="none" xmlns="http://www.w3.org/2000/svg">
<g clip-path="url(#clip0_187_60)">
<path d="M121.834 -0.26073C126.139 -0.249337 130.443 -0.256142 134.747 -0.267605C152.875 -0.308496 170.956 -0.0217151 189.062 0.890637C190.256 0.948883 190.256 0.948883 191.473 1.0083C230.779 2.97602 230.779 2.97602 243 15C255.442 29.6811 254.133 55.6765 254.203 73.7891C254.209 74.9718 254.215 76.1546 254.22 77.3732C254.23 79.8656 254.236 82.3581 254.24 84.8506C254.25 88.5673 254.281 92.2834 254.312 96C254.368 108.315 254 120.461 252.672 132.711C252.497 134.347 252.497 134.347 252.318 136.015C250.773 148.838 247.494 160.42 236.961 168.723C211.492 185.313 163.004 178.317 134.001 178.261C128.116 178.249 122.232 178.256 116.347 178.268C31.3448 178.409 31.3448 178.409 18 169C17.0854 168.37 17.0854 168.37 16.1523 167.727C4.76227 158.972 3.19844 144.683 1.42967 131.324C-0.0510535 117.412 -0.202791 103.537 -0.18752 89.5625C-0.186916 88.5436 -0.186312 87.5246 -0.185689 86.4747C-0.0916008 28.0735 -0.0916004 28.0735 12 15C12.5865 14.3581 13.173 13.7161 13.7773 13.0547C26.6264 0.494686 48.0617 1.71436 64.9375 0.890637C65.7685 0.848765 66.5994 0.806893 67.4556 0.763752C85.5807 -0.13367 103.69 -0.309046 121.834 -0.26073Z" fill="#FF0202"/>
<path d="M670.036 9C670.354 26.1664 670.672 43.3513 671 61.0371L671.08 65.3379L674.317 62.5049C676.879 60.2631 679.441 58.0206 682.076 55.7148C688.818 52.8512 694.462 51.8656 701.379 53.8848C705.827 55.8409 708.703 58.5744 711.173 62.8398C716.042 76.7814 716.187 91.2293 716.186 106.262V106.264C716.187 107.503 716.191 108.741 716.198 109.979L716.225 113.688C716.29 131.97 716.305 140.712 714.863 146.606C713.496 152.197 710.836 155.16 704.723 161.797C700.137 165.55 695.347 165.481 688.71 165.384C682.608 164.715 678.17 162.416 673.964 157.957C673.545 157.29 673.125 156.622 672.693 155.936L670.441 152.353L669.103 156.367L669.079 156.438C669.068 156.472 669.079 156.437 669.067 156.472C669.057 156.503 669.067 156.476 669.057 156.507L669.045 156.542C669.043 156.548 669.041 156.553 669.039 156.559L669.016 156.629C669.014 156.634 669.012 156.64 669.01 156.646L668.986 156.716C668.975 156.75 668.986 156.716 668.975 156.75L668.969 156.768C668.967 156.773 668.966 156.779 668.964 156.785L668.952 156.82C668.933 156.878 668.96 156.797 668.94 156.854L668.917 156.925C668.915 156.93 668.913 156.936 668.911 156.941L668.882 157.029C668.872 157.059 668.88 157.033 668.87 157.063C668.86 157.094 668.87 157.068 668.859 157.099L668.848 157.134C668.826 157.199 668.858 157.103 668.836 157.168L668.818 157.221C668.817 157.226 668.814 157.232 668.812 157.237L668.783 157.325C668.781 157.331 668.779 157.336 668.777 157.342L668.771 157.359C668.77 157.365 668.769 157.371 668.767 157.377C668.747 157.435 668.774 157.354 668.755 157.412C668.733 157.477 668.765 157.381 668.743 157.446L668.714 157.534C668.712 157.54 668.71 157.545 668.708 157.551L668.685 157.621C668.674 157.651 668.683 157.625 668.673 157.655C668.671 157.661 668.67 157.667 668.668 157.673L668.65 157.726C668.649 157.731 668.646 157.737 668.645 157.742L668.615 157.83C668.604 157.864 668.615 157.83 668.604 157.864L668.58 157.935C668.561 157.992 668.588 157.911 668.568 157.969C668.567 157.973 668.559 158 668.558 158.004L668.54 158.057C668.538 158.062 668.536 158.068 668.534 158.073L668.511 158.144C668.501 158.174 668.509 158.147 668.499 158.178L668.476 158.248C668.454 158.313 668.486 158.217 668.464 158.282L668.452 158.317C668.45 158.323 668.449 158.329 668.447 158.335L668.43 158.388C668.418 158.422 668.429 158.388 668.418 158.422L668.395 158.492C668.375 158.55 668.402 158.469 668.383 158.526L668.354 158.614C668.352 158.62 668.35 158.625 668.348 158.631L668.336 158.666C668.324 158.701 668.337 158.666 668.325 158.701L668.313 158.736C668.303 158.767 668.312 158.74 668.302 158.771L668.272 158.858C668.271 158.864 668.268 158.869 668.267 158.875L668.226 158.998C668.224 159.004 668.222 159.009 668.22 159.015L668.214 159.032C668.212 159.038 668.211 159.044 668.209 159.05L668.18 159.138C668.178 159.143 668.176 159.149 668.174 159.154L668.139 159.26C668.129 159.29 668.137 159.264 668.127 159.294L668.092 159.399C668.091 159.403 668.081 159.431 668.08 159.434L668.068 159.469C668.059 159.496 668.067 159.477 668.058 159.504L668.034 159.574C668.032 159.58 668.03 159.585 668.028 159.591L667.987 159.714C667.983 159.725 667.979 159.737 667.976 159.748L667.929 159.889C667.92 159.915 667.926 159.896 667.917 159.923L667.899 159.976C667.897 159.981 667.896 159.987 667.895 159.993L667.859 160.099C667.858 160.104 667.855 160.11 667.854 160.115L667.783 160.326C667.781 160.332 667.779 160.337 667.777 160.343L667.695 160.589C667.676 160.646 667.703 160.565 667.684 160.623L667.66 160.693C667.658 160.699 667.657 160.705 667.655 160.711L667.579 160.939C667.573 160.958 667.574 160.955 667.567 160.974L667.204 162.063C667.198 162.083 667.199 162.08 667.192 162.1L667.122 162.311C667.117 162.326 667.115 162.33 667.109 162.346L667.092 162.398C667.09 162.404 667.088 162.411 667.086 162.417L667.016 162.628C667.009 162.648 667.01 162.644 667.004 162.664L666.951 162.822C666.949 162.828 666.947 162.835 666.945 162.841L666.916 162.929C666.914 162.935 666.911 162.94 666.909 162.946L666.897 162.981C666.871 163.06 666.912 162.939 666.886 163.018L666.851 163.123C666.849 163.129 666.847 163.136 666.845 163.142L666.804 163.265C666.798 163.28 666.797 163.285 666.792 163.301C666.776 163.348 666.796 163.289 666.78 163.336C666.776 163.348 666.772 163.359 666.768 163.371C666.764 163.383 666.76 163.395 666.756 163.407L666.727 163.495C666.725 163.501 666.723 163.508 666.721 163.514L666.691 163.602C666.689 163.607 666.688 163.614 666.686 163.62L666.668 163.673C666.666 163.679 666.663 163.685 666.661 163.69L666.655 163.708C666.653 163.714 666.651 163.721 666.649 163.727L666.626 163.797C666.619 163.817 666.621 163.813 666.614 163.833L666.603 163.868C666.587 163.916 666.607 163.857 666.591 163.904L666.579 163.939C666.577 163.945 666.574 163.951 666.572 163.957L666.566 163.975C666.552 164.018 666.568 163.973 666.559 164H648V9H670.036ZM686.187 68.9346C683.472 67.9765 681.145 68.0201 678.944 68.8809C676.76 69.7353 674.843 71.357 672.948 72.9814L672.821 73.0908L672.714 73.2197C669.451 77.1351 669.861 81.4998 669.839 85.2451C669.829 86.5364 669.819 87.8278 669.81 89.1582V89.166C669.805 90.5767 669.801 91.9878 669.797 93.3984C669.791 94.8441 669.785 96.2897 669.779 97.7354V97.7373L669.76 106.83C669.754 110.708 669.731 114.587 669.702 118.47V118.472C669.684 121.462 669.678 124.451 669.677 127.437C669.674 128.864 669.665 130.292 669.652 131.719V131.72C669.644 132.726 669.64 133.733 669.64 134.737L669.644 137.745C669.64 138.88 669.637 140.016 669.633 141.186V141.236L669.635 141.287C669.695 142.547 669.723 143.639 670.081 144.59C670.458 145.59 671.167 146.353 671.887 147.173L672.04 147.347L672.229 147.481C675.985 150.157 680.361 150.099 684.055 149.999L684.442 149.988L684.799 149.833C686.545 149.072 687.811 148.284 688.813 147.088C689.756 145.963 690.355 144.592 691.023 143.043L691.088 142.894L691.128 142.735C692.911 135.604 693.159 128.73 693.168 121.647C693.171 120.662 693.174 119.677 693.178 118.662V118.66C693.183 116.581 693.186 114.503 693.186 112.424C693.188 109.281 693.206 106.137 693.225 102.988V102.979C693.228 100.955 693.23 98.9307 693.23 96.9062C693.238 95.9794 693.245 95.0525 693.252 94.0977C693.304 87.9923 693.346 84.6153 692.626 81.4492C691.903 78.2736 690.424 75.3574 687.787 70.1025L687.445 69.4199L686.734 69.1396L686.187 68.9346Z" fill="#FFFDFD" stroke="black" stroke-width="4"/>
<path d="M460.015 55C460.03 57.0477 460.045 59.1069 460.06 61.2129C460.127 70.1472 460.205 79.0813 460.287 88.0146C460.337 93.4302 460.384 98.8452 460.422 104.26C460.459 109.488 460.505 114.717 460.558 119.944C460.577 121.937 460.591 123.929 460.603 125.921V125.922C460.62 128.719 460.649 131.514 460.681 134.307C460.683 135.128 460.686 135.95 460.688 136.796V136.806C460.708 139.431 460.709 141.041 461.057 142.577C461.406 144.119 462.095 145.543 463.194 147.857L463.434 148.365L463.904 148.673C464.648 149.161 465.39 149.677 466.292 149.902C467.152 150.117 468.088 150.048 469.101 149.997L469.339 149.985L469.568 149.918C471.882 149.233 473.414 148.797 474.701 147.993C476.003 147.179 477.001 146.021 478.499 144.324L478.967 143.793L478.998 143.087C479.122 140.226 479.186 137.39 479.205 134.534C479.215 133.656 479.225 132.778 479.235 131.873V131.872C479.266 128.959 479.292 126.047 479.317 123.138C479.337 121.123 479.358 119.108 479.379 117.094V117.093C479.435 111.781 479.484 106.47 479.533 101.16C479.583 95.7456 479.638 90.331 479.694 84.915C479.795 74.9433 479.888 64.9714 479.981 55H503V164H484.953C484.734 163.639 484.576 163.221 484.45 162.711C484.345 162.291 484.267 161.834 484.184 161.297C484.105 160.785 484.018 160.172 483.903 159.564L483.902 159.561L483.367 156.775C483.234 156.068 483.102 155.361 482.966 154.633L482.149 150.261L479.42 153.773C478.807 154.563 478.801 154.569 478.187 155.36C475.486 158.662 473.053 161.007 470.321 162.676C467.618 164.326 464.511 165.382 460.373 165.943C454.018 166.29 449.468 164.731 443.898 161.392C441.277 158.907 439.701 155.588 438.707 151.821C437.695 147.98 437.326 143.84 436.996 139.873C436.879 136.932 436.872 133.987 436.886 131.001V128.417C436.887 125.644 436.895 122.872 436.903 120.096V120.092C436.905 118.154 436.906 116.216 436.907 114.278C436.91 109.205 436.92 104.131 436.931 99.0566V99.0557L436.952 83.4883C436.962 73.9924 436.979 64.4963 436.997 55H460.015Z" fill="#FFFDFD" stroke="black" stroke-width="4"/>
<path d="M588.015 55L588.06 61.1055C588.127 69.9281 588.204 78.7506 588.287 87.5723C588.337 92.9195 588.384 98.2661 588.422 103.612C588.459 108.776 588.505 113.939 588.558 119.102L588.604 125.001C588.621 127.758 588.649 130.514 588.681 133.267V133.268C588.683 134.082 588.685 134.896 588.688 135.735V135.76C588.749 139.946 588.951 143.832 591.252 147.972L591.542 148.493L592.07 148.771C593.102 149.312 593.955 149.781 594.927 149.976C595.876 150.165 596.88 150.08 598.136 149.995L598.421 149.976L598.69 149.877C600.731 149.127 602.114 148.636 603.261 147.817C604.42 146.99 605.288 145.863 606.569 144.24L606.97 143.732L606.998 143.087C607.122 140.226 607.185 137.39 607.205 134.534C607.215 133.656 607.225 132.778 607.235 131.873V131.872C607.267 128.959 607.292 126.047 607.317 123.138C607.337 121.123 607.358 119.108 607.379 117.094V117.093C607.434 111.781 607.484 106.47 607.532 101.16C607.583 95.7456 607.638 90.331 607.693 84.915C607.794 74.9433 607.888 64.9714 607.981 55H631V164H613.527C612.671 160.859 611.812 157.708 610.93 154.474L609.895 150.68L607.439 153.751C606.462 154.972 605.484 156.193 604.479 157.45C602.062 160.177 599.794 162.038 597.296 163.345C594.805 164.648 591.982 165.454 588.375 165.943C582.329 166.282 577.73 164.862 572.457 161.737C566.483 155.287 565.849 147.918 565.887 138.72V138.711C565.887 137.784 565.886 136.857 565.886 135.902C565.887 132.848 565.895 129.793 565.902 126.735V126.732L565.906 120.363L565.932 103.622C565.942 97.9234 565.946 92.2246 565.951 86.5273C565.961 76.0184 565.978 65.5093 565.997 55H588.015Z" fill="#FFFDFD" stroke="black" stroke-width="4"/>
<path d="M302.449 14C305.282 25.0294 307.71 36.1385 310.054 47.3037L312.486 58.9932C313.214 62.4962 313.946 65.9985 314.679 69.499C314.901 70.5792 315.124 71.6595 315.354 72.7725L315.354 72.7793C315.561 73.7671 315.768 74.7548 315.981 75.7725V75.7734C316.16 76.6351 316.338 77.4968 316.522 78.3838C316.658 79.2062 316.784 80.0658 317.14 80.7695C317.548 81.5756 318.212 82.1008 318.699 82.5186L321.289 84.7383L321.961 81.3936L322.584 78.29C326.915 56.7616 331.506 35.3516 336.581 14H358.731C357.881 20.771 357.83 20.8832 357.103 23.457L357.1 23.4648C356.91 24.1449 356.721 24.825 356.526 25.5254C356.32 26.2459 356.113 26.9666 355.9 27.709L355.897 27.7207C355.678 28.5037 355.458 29.287 355.231 30.0938C354.511 32.6575 353.782 35.2197 353.053 37.7852L353.052 37.7891L351.53 43.1924C350.199 47.9207 348.861 52.6476 347.521 57.375H347.52C346.164 62.1603 344.815 66.9472 343.466 71.7324C341.711 77.955 339.955 84.1771 338.192 90.3965V90.3975C337.744 91.9834 337.298 93.57 336.854 95.1572C335.968 98.3197 335.075 101.454 334.112 104.569L334.109 104.581C331.947 111.734 331.531 118.404 331.488 125.637C331.47 126.797 331.453 127.958 331.435 129.154V129.156C331.381 132.827 331.346 136.497 331.312 140.161C331.279 142.664 331.245 145.166 331.209 147.669C331.131 153.114 331.076 158.559 331.021 164H308.152C308.307 161.894 308.462 159.777 308.62 157.611L308.621 157.587L308.623 157.562C310.748 114.078 297.796 74.5011 285.441 33.8125C282.667 24.6641 281.308 20.176 280.633 17.4424C280.245 15.8732 280.096 14.9363 280.038 14H302.449Z" fill="#FFFDFD" stroke="black" stroke-width="4"/>
<path d="M389.148 52.4127C396.395 52.4733 403.542 54.4464 408.969 58.15C417.21 64.7161 419.892 73.6948 421.609 84.4635C422.38 91.6975 422.333 98.9678 422.316 106.393V106.396C422.314 107.818 422.32 109.239 422.328 110.659L422.361 114.913C422.419 131.315 422.431 139.138 421.225 144.37C420.088 149.301 417.891 151.847 412.747 157.654C404.884 165.052 396.364 166.161 385.124 166.002C376.781 165.112 369.952 163.489 364.513 157.688C357.627 149.06 354.824 137.101 354.048 124.37C353.273 111.652 354.531 98.4845 355.504 87.6256C356.839 75.689 360.181 65.413 369.266 57.9264C374.745 54.2018 381.907 52.3523 389.148 52.4127ZM391.625 67.9381C390.164 67.7658 388.814 67.6847 387.46 67.8629C385.868 68.0726 384.394 68.6213 382.742 69.5846L382.333 69.8239L382.074 70.2213C379.503 74.1701 378.44 78.812 377.998 83.3785C377.668 86.7889 377.676 90.2909 377.707 93.5299L377.734 96.6686C377.733 97.7351 377.731 98.8022 377.729 99.901V99.903L377.739 106.65C377.75 110.056 377.739 113.464 377.727 116.878V116.886L377.734 123.476C377.73 124.48 377.726 125.484 377.722 126.518V126.529C377.729 131.985 377.726 134.971 378.273 137.836C378.82 140.705 379.914 143.418 381.893 148.368L382.14 148.985L382.707 149.332C384.346 150.333 385.788 150.985 387.396 151.235C388.98 151.481 390.55 151.306 392.368 150.965L392.962 150.854L393.395 150.433C395.396 148.486 396.801 146.613 397.718 144.458C398.63 142.314 399.001 140.027 399.138 137.352L399.14 137.308L399.141 137.263C399.148 136.211 399.154 135.158 399.161 134.074C399.171 132.875 399.181 131.677 399.191 130.442V130.432C399.195 129.141 399.199 127.85 399.203 126.52C399.209 125.175 399.215 123.83 399.221 122.485V122.484C399.231 119.664 399.237 116.843 399.24 114.024C399.246 110.433 399.27 106.84 399.298 103.244V103.242C399.317 100.458 399.322 97.6752 399.323 94.8961C399.328 92.9378 399.346 90.9781 399.365 89.0104V88.9977C399.384 83.9014 399.413 80.9595 398.648 78.2516C397.88 75.5345 396.331 73.1151 393.692 68.9323L393.19 68.1383L392.259 68.0172L391.625 67.9381Z" fill="#FFFDFD" stroke="black" stroke-width="4"/>
<path d="M760.156 52.4686C768.165 52.128 776.229 54.1043 781.967 58.0604C788.032 63.2034 790.711 69.2159 792.009 77.2206C792.47 84.3076 792.282 91.424 792.188 98.661V98.6688C792.132 104.729 792.076 110.79 792.019 117H750.976L751 119.024C751.082 125.694 751.122 129.159 751.51 132.654C751.898 136.146 752.632 139.651 754.042 146.409L754.209 147.21L754.891 147.664C756.723 148.886 758.212 149.632 759.893 149.958C761.512 150.272 763.166 150.16 765.166 149.993L765.57 149.96L765.928 149.771C766.742 149.345 767.467 148.967 768.042 148.599C768.645 148.212 769.218 147.754 769.672 147.099C770.123 146.45 770.356 145.751 770.517 145.049C770.672 144.371 770.791 143.54 770.929 142.592L770.928 142.591C771.188 141.122 771.431 139.653 771.663 138.187L771.662 138.186C772 136.161 772.338 134.137 772.682 132.074C779.079 132.352 785.489 132.632 792.049 132.917C792.284 142.85 791.849 149.896 785.586 157.566C776.96 164.387 768.156 166.618 757.047 165.764C747.999 164.461 741.766 162.04 736.152 155.134C732.2 149.136 730.307 142.104 729.429 134.659C728.544 127.162 728.702 119.416 728.739 112.006V112.004C728.745 110.72 728.744 109.436 728.741 108.154L728.727 104.312C728.72 96.4976 728.723 88.3448 730.096 80.6659C731.462 73.0242 734.159 66.0069 739.43 60.3983C744.457 55.4661 752.123 52.8104 760.156 52.4686ZM767.82 69.7352C764.686 67.1476 761.75 67.4666 758.786 67.5917L758.697 67.5956L758.61 67.6073C757.712 67.7256 756.659 67.8217 755.721 68.4305C755.256 68.7323 754.889 69.1059 754.565 69.4794C754.247 69.8451 753.889 70.3094 753.48 70.8397L753.288 71.0878L753.182 71.3827C750.958 77.5318 750.858 83.8147 750.911 89.8739L750.938 92.4559C750.942 93.3753 750.947 94.2948 750.951 95.2421V95.243C750.963 97.5023 750.981 99.7612 751 102.017L751.017 104H771.966L771.999 102.035C772.054 98.8827 772.094 95.7317 772.125 92.5819L772.124 92.5809C772.141 91.7134 772.158 90.8456 772.175 89.952C772.301 85.092 772.383 82.3589 771.878 79.7655C771.371 77.1633 770.281 74.7456 768.374 70.4637L768.183 70.0341L767.82 69.7352Z" fill="#FFFDFD" stroke="black" stroke-width="4"/>
<path d="M567.119 13.8756C569.603 13.881 570.54 13.8926 571.042 13.986C571.091 15.2061 571.105 16.4365 571.098 17.6793V17.6852C571.095 18.532 571.092 19.3793 571.09 20.2516C571.081 21.3386 571.072 22.4256 571.062 23.5455V23.5504C571.046 26.3495 571.029 29.1457 571.012 31.9996H546V164H524V31.9996H499V13.9948C508.096 13.9743 517.192 13.958 526.287 13.9479C530.82 13.9426 535.353 13.9357 539.886 13.9244C544.254 13.9136 548.623 13.9075 552.992 13.9049H552.994C554.666 13.9031 556.339 13.8995 558.011 13.8942C560.34 13.887 562.669 13.8859 565.001 13.8864H565.012C565.707 13.8828 566.403 13.8793 567.119 13.8756Z" fill="#FFFDFD" stroke="black" stroke-width="4"/>
<path d="M102 52C106.959 53.6532 110.863 55.5145 115.25 58.1875C116.753 59.0872 118.257 59.9855 119.762 60.8828C120.588 61.3768 121.415 61.8709 122.267 62.3799C127.506 65.4857 132.786 68.5214 138.062 71.5625C139.175 72.2041 140.288 72.8458 141.434 73.5068C149.924 78.3957 158.443 83.2302 167 88C167 88.66 167 89.32 167 90C164.358 91.5241 161.716 93.0482 159.075 94.5723C156.75 95.9134 154.426 97.2545 152.101 98.5957C146.618 101.759 141.134 104.923 135.649 108.085C133.919 109.082 132.189 110.08 130.458 111.078C128.3 112.322 126.142 113.567 123.983 114.811C122.981 115.389 121.978 115.967 120.945 116.562C119.975 117.122 119.005 117.681 118.005 118.258C113.756 120.721 109.525 123.216 105.296 125.715C103 127 103 127 102 127C102 102.25 102 77.5 102 52Z" fill="#FFFDFD"/>
</g>
<defs>
<clipPath id="clip0_187_60">
<rect width="794" height="178" fill="white"/>
</clipPath>
</defs>
</svg>
